<?xml version="1.0" encoding="utf-8"?>
<!-- Generator: Adobe Illustrator 24.1.2, SVG Export Plug-In . SVG Version: 6.00 Build 0)  -->
<svg version="1.1" id="Слой_1" xmlns="http://www.w3.org/2000/svg" xmlns:xlink="http://www.w3.org/1999/xlink" x="0px" y="0px"
	 viewBox="370 325 1130 1100" style="enable-background:new 0 0 1920 1920;" xml:space="preserve">
<style type="text/css">
	.st0{fill:#028898;}
	.st1{fill:#71C2CC;}
	.st2{fill:#8CD0D8;}
	.st3{fill:#AADCE1;}
	.st4{fill:#4BBBC3;}
	.st5{fill:#00A3B1;}
	.st6{fill:#1EADB5;}
	.st7{fill:#08889A;}
	.st8{fill:#C6E7EB;}
</style>
<path class="st0" d="M1486.72,877.52c0.11,71.91-13.97,143.97-41.49,210.53c-27.45,66.6-68.23,127.66-119.08,178.66
	c-50.89,51.04-111.84,92-178.44,119.68c-66.56,27.75-138.69,42.05-210.79,42.16c-72.1,0.07-144.3-13.97-211.01-41.6
	c-66.75-27.52-127.92-68.34-179.07-119.34c-51.15-51-92.15-112.1-120.01-178.81c-27.9-66.67-42.31-138.99-42.53-211.27
	c-0.37-72.32,13.48-144.86,40.93-211.98c27.38-67.15,68.2-128.81,119.31-180.44c51.22-51.48,112.66-92.82,179.81-120.79
	c67.12-28.08,139.84-42.57,212.57-42.75c72.69,0.52,145.53,14.82,212.2,43.68c18.94,8.1,37.4,17.27,55.27,27.41l23.14-43.09
	l62.33,102.92l37.63,62.14l-63.14,1.26l-127.55,2.53l37.11-69.01c-15.97-9.21-32.43-17.61-49.29-25.07
	c-58.76-25.85-122.83-39.89-187.69-41.27c-129.7-4.12-261.19,45.28-358.14,136.32c-48.4,45.39-88.25,100.55-115.78,161.83
	c-27.41,61.32-42.53,128.4-44.35,196.3c-0.52,33.91,1.86,68.05,8.36,101.44c6.09,33.5,16.68,66.08,29.86,97.39
	c26.22,62.81,66.45,119.27,115.07,166.14c48.81,46.76,106.57,83.87,169.19,107.72c62.51,24.11,129.45,35.36,195.78,33.65
	c66.38-1.75,131.9-16.46,191.85-43.2c59.95-26.67,114.22-65.19,158.97-112.32c44.87-47.06,80.23-102.7,103.41-162.69
	c23.29-60.02,34.32-124.25,32.83-188.13c-0.78-64-14.6-126.96-38.22-185.9c-7.5-18.24-16.08-36.03-25.66-53.34l54.82-33.54
	c11.33,20.13,21.43,40.93,30.31,62.22C1472.79,733.52,1486.83,805.58,1486.72,877.52z"/>
<path class="st1" d="M952.98,828.4c5.25,16.53,9.96,33.12,14.14,49.73c11.1-21.29,22.98-41.72,35.09-61.2
	c-3.95-20.16-8.73-40.34-14.34-60.45C975.97,778.98,964.11,803.06,952.98,828.4z"/>
<path class="st2" d="M937.66,865.41c5.32,13.8,10.3,27.91,14.84,42.29c4.68-10.03,9.58-19.89,14.63-29.57
	c-4.18-16.6-8.89-33.2-14.14-49.73C947.68,840.46,942.55,852.81,937.66,865.41z"/>
<path class="st3" d="M920.68,913.39c5.17,11.32,10.07,22.86,14.63,34.6c5.3-13.71,11.06-27.15,17.19-40.29
	c-4.54-14.38-9.52-28.48-14.84-42.29C931.58,881.04,925.88,897.06,920.68,913.39z"/>
<path class="st4" d="M1002.22,816.93c15.47-24.88,31.33-48.23,46.47-69.87c-4.97-22.1-10.82-44.26-17.57-66.37
	c-13.63,22.41-28.47,47.9-43.24,75.79C993.49,776.58,998.27,796.76,1002.22,816.93z"/>
<path class="st5" d="M971.15,703.94c13.3-23.86,28.02-47.28,44.28-70.04c-9.58-26.26-20.45-52.32-32.6-78.01
	c-16.67,22.74-31.53,46.29-44.7,70.44C950.75,651.73,961.72,677.68,971.15,703.94z"/>
<path class="st6" d="M987.88,756.48c14.76-27.89,29.61-53.38,43.24-75.79c-4.78-15.64-10.01-31.24-15.68-46.78
	c-16.26,22.76-30.98,46.18-44.28,70.04C977.4,721.34,982.97,738.88,987.88,756.48z"/>
<path class="st4" d="M935.18,777.71c-9.7-25.21-20.57-50.16-32.53-74.69c-6.51,16.87-12.28,33.92-17.35,51.09
	c11.57,21,22.9,43.2,33.49,66.43C923.76,806.2,929.22,791.91,935.18,777.71z"/>
<path class="st2" d="M918.78,820.54c-6.36,18.31-11.88,36.72-16.65,55.15c6.47,12.28,12.69,24.85,18.56,37.7
	c5.2-16.33,10.9-32.34,16.97-47.98C931.74,850.07,925.41,835.1,918.78,820.54z"/>
<path class="st1" d="M918.78,820.54c6.63,14.56,12.96,29.53,18.88,44.87c4.89-12.6,10.02-24.95,15.33-37.01
	c-5.39-16.98-11.34-33.89-17.81-50.68C929.22,791.91,923.76,806.2,918.78,820.54z"/>
<path class="st4" d="M952.98,828.4c11.13-25.33,22.98-49.41,34.89-71.92c-4.91-17.6-10.48-35.13-16.72-52.53
	c-13.49,24.19-25.51,48.82-35.98,73.77C941.64,794.51,947.59,811.42,952.98,828.4z"/>
<path class="st6" d="M971.15,703.94c-9.43-26.27-20.41-52.22-33.02-77.61c-13.62,24.99-25.43,50.62-35.48,76.69
	c11.96,24.52,22.83,49.47,32.53,74.69C945.64,752.77,957.67,728.13,971.15,703.94z"/>
<path class="st1" d="M885.29,754.11c-6.35,21.47-11.61,43.13-15.82,64.86c11.24,18.12,22.27,37.04,32.65,56.71
	c4.77-18.43,10.3-36.84,16.65-55.15C908.19,797.31,896.86,775.12,885.29,754.11z"/>
<path class="st7" d="M982.83,555.9c-14.2-30-30.14-59.49-47.87-88.15c-18.6,22.4-35.04,45.83-49.46,70.08
	c20.01,28.4,37.5,58.05,52.63,88.51C951.3,602.19,966.16,578.64,982.83,555.9z"/>
<path class="st3" d="M967.13,878.12c-5.05,9.68-9.95,19.54-14.63,29.57c35.28,111.73,44.22,240.1-16.99,372.82
	C998.38,1165.85,1003.21,1021.53,967.13,878.12z"/>
<path class="st8" d="M952.5,907.7c-6.13,13.14-11.89,26.58-17.19,40.29c38.14,98.37,52.05,211.15,0.19,332.53
	C996.72,1147.8,987.78,1019.43,952.5,907.7z"/>
<path class="st2" d="M1002.22,816.93c-12.12,19.48-23.99,39.91-35.09,61.2c36.09,143.4,31.25,287.73-31.62,402.39
	C1006.18,1184.86,1038.46,1002.03,1002.22,816.93z"/>
<path class="st1" d="M1048.69,747.05c-15.14,21.65-31,45-46.47,69.87c36.24,185.1,3.96,367.94-66.71,463.59
	C1059.09,1182.96,1098.32,967.91,1048.69,747.05z"/>
<path class="st5" d="M938.13,626.34c-15.13-30.46-32.62-60.11-52.63-88.51c-13.64,22.94-25.45,46.61-35.57,70.82
	c19.3,30.44,36.95,62.04,52.72,94.38C912.7,676.96,924.51,651.33,938.13,626.34z"/>
<path class="st1" d="M869.48,818.98c-18.94-30.52-38.5-58.75-56.66-84.39c-36.69,200.24,21.28,413.47,122.69,545.93
	C866.69,1157.05,837.21,985.83,869.48,818.98z"/>
<path class="st8" d="M935.31,947.99c-4.55-11.74-9.45-23.28-14.63-34.6c-36.55,114.85-47.91,245.15,14.82,367.13
	C883.51,1159.2,897.28,1046.4,935.31,947.99z"/>
<path class="st6" d="M902.65,703.03c-15.77-32.35-33.42-63.94-52.72-94.38c-7.49,17.91-14.05,36.12-19.71,54.54
	c17.54,26.88,36.6,57.39,55.07,90.93C890.37,736.94,896.14,719.89,902.65,703.03z"/>
<path class="st4" d="M885.29,754.11c-18.47-33.53-37.54-64.05-55.07-90.93c-7.23,23.51-13,47.36-17.41,71.4
	c18.16,25.64,37.72,53.87,56.66,84.39C873.68,797.24,878.94,775.59,885.29,754.11z"/>
<path class="st2" d="M902.12,875.69c-10.38-19.68-21.4-38.59-32.65-56.71c-32.27,166.85-2.78,338.08,66.03,461.54
	C876.02,1167.57,864.53,1020.93,902.12,875.69z"/>
<path class="st3" d="M920.68,913.39c-5.87-12.85-12.08-25.42-18.56-37.7c-37.6,145.24-26.11,291.88,33.38,404.83
	C872.77,1158.53,884.13,1028.23,920.68,913.39z"/>
</svg>
